<svg width="2189" height="512" viewBox="0 0 2189 512" fill="none" xmlns="http://www.w3.org/2000/svg">
<path d="M262.99 228.567H171.81L211.357 10.1982L10.1985 283.429H101.38L61.8335 501.798L262.99 228.567Z" fill="#FFD500"/>
<path d="M61.8296 512C60.4746 512 59.1036 511.729 57.7966 511.167C53.4396 509.289 50.9516 504.653 51.7976 499.983L89.1686 293.63H10.1996C6.35356 293.63 2.83256 291.466 1.09656 288.033C-0.638441 284.6 -0.294441 280.483 1.98556 277.385L203.144 4.15255C205.958 0.330555 211.035 -1.04345 215.394 0.832555C219.751 2.71055 222.239 7.34655 221.393 12.0166L184.023 218.37H262.992C266.838 218.37 270.359 220.534 272.095 223.967C273.83 227.4 273.486 231.517 271.206 234.615L70.0466 507.846C68.0766 510.523 64.9946 512 61.8296 512ZM30.3726 273.231H101.38C104.403 273.231 107.27 274.572 109.208 276.893C111.146 279.213 111.955 282.273 111.416 285.248L79.7116 460.313L242.817 238.768H171.81C168.787 238.768 165.92 237.427 163.982 235.107C162.044 232.787 161.235 229.727 161.774 226.752L193.478 51.6866L30.3726 273.231Z" fill="#3D3D3D"/>
<path d="M148.262 171.347C147.658 171.347 147.047 171.293 146.433 171.182C140.89 170.178 137.21 164.872 138.213 159.329L139.136 154.229C140.139 148.686 145.459 145.004 150.988 146.01C156.531 147.014 160.211 152.32 159.208 157.863L158.285 162.963C157.393 167.891 153.099 171.347 148.262 171.347Z" fill="#3D3D3D"/>
<path d="M136.051 238.77C135.447 238.77 134.836 238.715 134.221 238.604C128.678 237.6 124.999 232.295 126.003 226.752L133.04 187.888C134.044 182.345 139.357 178.663 144.894 179.669C150.437 180.673 154.116 185.979 153.113 191.522L146.076 230.386C145.183 235.314 140.889 238.77 136.051 238.77Z" fill="#3D3D3D"/>
<path d="M2177.99 228.567H2086.81L2126.36 10.1982L1925.2 283.429H2016.38L1976.83 501.798L2177.99 228.567Z" fill="#FFD500"/>
<path d="M1976.83 512C1975.47 512 1974.1 511.729 1972.8 511.167C1968.44 509.289 1965.95 504.653 1966.8 499.983L2004.17 293.63H1925.2C1921.35 293.63 1917.83 291.466 1916.1 288.033C1914.36 284.6 1914.71 280.483 1916.99 277.385L2118.14 4.15255C2120.96 0.330555 2126.03 -1.04345 2130.39 0.832555C2134.75 2.71055 2137.24 7.34655 2136.39 12.0166L2099.02 218.37H2177.99C2181.84 218.37 2185.36 220.534 2187.09 223.967C2188.83 227.4 2188.49 231.517 2186.21 234.615L1985.05 507.846C1983.08 510.523 1979.99 512 1976.83 512ZM1945.37 273.231H2016.38C2019.4 273.231 2022.27 274.572 2024.21 276.893C2026.15 279.213 2026.95 282.273 2026.42 285.248L1994.71 460.313L2157.82 238.768H2086.81C2083.79 238.768 2080.92 237.427 2078.98 235.107C2077.04 232.787 2076.23 229.727 2076.77 226.752L2108.48 51.6866L1945.37 273.231Z" fill="#3D3D3D"/>
<path d="M2063.26 171.347C2062.66 171.347 2062.05 171.293 2061.43 171.182C2055.89 170.178 2052.21 164.872 2053.21 159.329L2054.14 154.229C2055.14 148.686 2060.46 145.004 2065.99 146.01C2071.53 147.014 2075.21 152.32 2074.21 157.863L2073.28 162.963C2072.39 167.891 2068.1 171.347 2063.26 171.347Z" fill="#3D3D3D"/>
<path d="M2051.05 238.77C2050.45 238.77 2049.84 238.715 2049.22 238.604C2043.68 237.6 2040 232.295 2041 226.752L2048.04 187.888C2049.04 182.345 2054.36 178.663 2059.89 179.669C2065.44 180.673 2069.12 185.979 2068.11 191.522L2061.08 230.386C2060.18 235.314 2055.89 238.77 2051.05 238.77Z" fill="#3D3D3D"/>
<path d="M427.798 355V148.6H538.198V169.9H451.798V244.6H528.898V265.9H451.798V355H427.798ZM567.989 355V148.6H591.989V333.1H673.589V355H567.989ZM820.271 355L801.971 298.6H723.971L705.971 355H681.671L747.671 148.6H779.171L845.171 355H820.271ZM763.871 175H762.371L729.971 277.3H795.671L763.871 175ZM927.952 357.4C917.552 357.4 906.652 357 895.252 356.2C884.052 355.6 874.252 354.6 865.852 353.2V332.8C887.052 335 905.352 336.1 920.752 336.1C930.352 336.1 937.852 335.6 943.252 334.6C948.852 333.6 953.452 331.8 957.052 329.2C960.652 326.8 962.952 323.2 963.952 318.4C964.952 313.4 965.452 306.7 965.452 298.3C965.452 287.7 964.952 280.3 963.952 276.1C962.952 271.9 960.652 268.9 957.052 267.1C953.652 265.3 947.452 263.8 938.452 262.6L896.152 257.2C885.952 255.8 878.252 252.9 873.052 248.5C868.052 244.1 864.752 238.4 863.152 231.4C861.552 224.4 860.752 215.2 860.752 203.8C860.752 188.4 863.152 176.6 867.952 168.4C872.752 160 879.752 154.2 888.952 151C898.352 147.8 910.652 146.2 925.852 146.2C936.252 146.2 946.352 146.7 956.152 147.7C966.152 148.5 974.352 149.6 980.752 151V170.8C965.952 168.6 949.452 167.5 931.252 167.5C921.052 167.5 912.952 168.1 906.952 169.3C900.952 170.5 896.352 172.4 893.152 175C889.752 177.6 887.452 181.1 886.252 185.5C885.252 189.7 884.752 195.6 884.752 203.2C884.752 212 885.252 218.4 886.252 222.4C887.252 226.4 889.252 229.3 892.252 231.1C895.252 232.7 900.152 233.9 906.952 234.7L948.352 240.1C959.152 241.5 967.352 243.7 972.952 246.7C978.752 249.5 983.052 254.7 985.852 262.3C988.452 268.7 989.752 279.9 989.752 295.9C989.752 312.9 987.452 325.9 982.852 334.9C978.252 343.7 971.552 349.7 962.752 352.9C954.152 355.9 942.552 357.4 927.952 357.4ZM1140.66 355V261.7H1050.06V355H1026.06V148.6H1050.06V239.8H1140.66V148.6H1164.66V355H1140.66ZM1268.1 357.4C1257.7 357.4 1246.8 357 1235.4 356.2C1224.2 355.6 1214.4 354.6 1206 353.2V332.8C1227.2 335 1245.5 336.1 1260.9 336.1C1270.5 336.1 1278 335.6 1283.4 334.6C1289 333.6 1293.6 331.8 1297.2 329.2C1300.8 326.8 1303.1 323.2 1304.1 318.4C1305.1 313.4 1305.6 306.7 1305.6 298.3C1305.6 287.7 1305.1 280.3 1304.1 276.1C1303.1 271.9 1300.8 268.9 1297.2 267.1C1293.8 265.3 1287.6 263.8 1278.6 262.6L1236.3 257.2C1226.1 255.8 1218.4 252.9 1213.2 248.5C1208.2 244.1 1204.9 238.4 1203.3 231.4C1201.7 224.4 1200.9 215.2 1200.9 203.8C1200.9 188.4 1203.3 176.6 1208.1 168.4C1212.9 160 1219.9 154.2 1229.1 151C1238.5 147.8 1250.8 146.2 1266 146.2C1276.4 146.2 1286.5 146.7 1296.3 147.7C1306.3 148.5 1314.5 149.6 1320.9 151V170.8C1306.1 168.6 1289.6 167.5 1271.4 167.5C1261.2 167.5 1253.1 168.1 1247.1 169.3C1241.1 170.5 1236.5 172.4 1233.3 175C1229.9 177.6 1227.6 181.1 1226.4 185.5C1225.4 189.7 1224.9 195.6 1224.9 203.2C1224.9 212 1225.4 218.4 1226.4 222.4C1227.4 226.4 1229.4 229.3 1232.4 231.1C1235.4 232.7 1240.3 233.9 1247.1 234.7L1288.5 240.1C1299.3 241.5 1307.5 243.7 1313.1 246.7C1318.9 249.5 1323.2 254.7 1326 262.3C1328.6 268.7 1329.9 279.9 1329.9 295.9C1329.9 312.9 1327.6 325.9 1323 334.9C1318.4 343.7 1311.7 349.7 1302.9 352.9C1294.3 355.9 1282.7 357.4 1268.1 357.4ZM1486.21 355L1467.91 298.6H1389.91L1371.91 355H1347.61L1413.61 148.6H1445.11L1511.11 355H1486.21ZM1429.81 175H1428.31L1395.91 277.3H1461.61L1429.81 175ZM1538.04 355V148.6H1648.44V169.9H1562.04V244.6H1639.14V265.9H1562.04V355H1538.04ZM1678.24 355V148.6H1794.04V169.9H1702.24V240.1H1782.04V261.4H1702.24V333.7H1794.04V355H1678.24Z" fill="black"/>
</svg>
