<svg width="3456" height="672" viewBox="0 0 3456 672" fill="none" xmlns="http://www.w3.org/2000/svg">
<path d="M654.116 541.631C643.716 541.631 632.816 541.231 621.416 540.431C610.216 539.831 600.416 538.831 592.016 537.431V517.031C613.216 519.231 631.516 520.331 646.916 520.331C656.516 520.331 664.016 519.831 669.416 518.831C675.016 517.831 679.616 516.031 683.216 513.431C686.816 511.031 689.116 507.431 690.116 502.631C691.116 497.631 691.616 490.931 691.616 482.531C691.616 471.931 691.116 464.531 690.116 460.331C689.116 456.131 686.816 453.131 683.216 451.331C679.816 449.531 673.616 448.031 664.616 446.831L622.316 441.431C612.116 440.031 604.416 437.131 599.216 432.731C594.216 428.331 590.916 422.631 589.316 415.631C587.716 408.631 586.916 399.431 586.916 388.031C586.916 372.631 589.316 360.831 594.116 352.631C598.916 344.231 605.916 338.431 615.116 335.231C624.516 332.031 636.816 330.431 652.016 330.431C662.416 330.431 672.516 330.931 682.316 331.931C692.316 332.731 700.516 333.831 706.916 335.231V355.031C692.116 352.831 675.616 351.731 657.416 351.731C647.216 351.731 639.116 352.331 633.116 353.531C627.116 354.731 622.516 356.631 619.316 359.231C615.916 361.831 613.616 365.331 612.416 369.731C611.416 373.931 610.916 379.831 610.916 387.431C610.916 396.231 611.416 402.631 612.416 406.631C613.416 410.631 615.416 413.531 618.416 415.331C621.416 416.931 626.316 418.131 633.116 418.931L674.516 424.331C685.316 425.731 693.516 427.931 699.116 430.931C704.916 433.731 709.216 438.931 712.016 446.531C714.616 452.931 715.916 464.131 715.916 480.131C715.916 497.131 713.616 510.131 709.016 519.131C704.416 527.931 697.716 533.931 688.916 537.131C680.316 540.131 668.716 541.631 654.116 541.631ZM872.228 539.231L853.928 482.831H775.928L757.928 539.231H733.628L799.628 332.831H831.128L897.128 539.231H872.228ZM815.828 359.231H814.328L781.928 461.531H847.628L815.828 359.231ZM800.228 316.931C800.228 311.731 801.028 308.231 802.628 306.431C804.428 304.431 807.928 302.531 813.128 300.731L818.828 298.931C824.428 297.331 828.028 295.831 829.628 294.431C831.428 292.831 832.328 290.431 832.328 287.231C832.328 282.831 830.928 280.031 828.128 278.831C825.328 277.631 819.528 277.031 810.728 277.031C801.128 277.031 791.528 277.631 781.928 278.831V264.731C793.928 263.131 804.328 262.331 813.128 262.331C825.928 262.331 835.028 263.931 840.428 267.131C846.028 270.331 848.828 276.431 848.828 285.431C848.828 291.831 847.728 296.631 845.528 299.831C843.528 302.831 839.328 305.431 832.928 307.631L826.628 309.731C822.628 310.931 819.928 311.931 818.528 312.731C817.128 313.531 816.228 314.431 815.828 315.431C815.428 316.231 815.228 317.831 815.228 320.231H800.228V316.931ZM1039.56 539.231L948.36 380.831H947.16V539.231H924.06V332.831H948.66L1038.36 488.231H1039.56V332.831H1062.96V539.231H1039.56ZM1165.77 332.831H1241.97C1257.57 332.831 1269.27 335.531 1277.07 340.931C1284.87 346.331 1289.97 353.631 1292.37 362.831C1294.77 371.831 1295.97 383.531 1295.97 397.931C1295.97 412.131 1294.77 423.731 1292.37 432.731C1289.97 441.731 1284.77 449.031 1276.77 454.631C1268.97 460.231 1257.27 463.031 1241.67 463.031H1189.77V539.231H1165.77V332.831ZM1235.37 442.031C1246.37 442.031 1254.47 440.531 1259.67 437.531C1264.87 434.531 1268.17 430.031 1269.57 424.031C1271.17 418.031 1271.97 409.331 1271.97 397.931C1271.97 386.331 1271.27 377.631 1269.87 371.831C1268.47 366.031 1265.17 361.631 1259.97 358.631C1254.77 355.631 1246.67 354.131 1235.67 354.131H1189.77V442.031H1235.37ZM1443.71 539.231V445.931H1353.11V539.231H1329.11V332.831H1353.11V424.031H1443.71V332.831H1467.71V539.231H1443.71ZM1633.24 539.231L1614.94 482.831H1536.94L1518.94 539.231H1494.64L1560.64 332.831H1592.14L1658.14 539.231H1633.24ZM1576.84 359.231H1575.34L1542.94 461.531H1608.64L1576.84 359.231ZM1536.94 317.231V315.431L1563.94 275.531H1588.84L1615.84 315.431V317.231H1599.94L1576.24 288.431L1552.84 317.231H1536.94ZM1587.04 268.931C1587.04 263.931 1587.94 260.431 1589.74 258.431C1591.54 256.431 1594.94 254.631 1599.94 253.031L1605.64 251.231C1611.24 249.631 1614.84 248.131 1616.44 246.731C1618.24 245.131 1619.14 242.631 1619.14 239.231C1619.14 234.831 1617.74 232.131 1614.94 231.131C1612.14 229.931 1606.34 229.331 1597.54 229.331C1588.94 229.331 1579.34 229.831 1568.74 230.831V217.031C1580.74 215.431 1591.14 214.631 1599.94 214.631C1612.94 214.631 1622.14 216.231 1627.54 219.431C1632.94 222.631 1635.64 228.731 1635.64 237.731C1635.64 244.131 1634.54 248.831 1632.34 251.831C1630.34 254.831 1626.14 257.431 1619.74 259.631L1613.44 261.731C1609.64 262.931 1606.94 263.931 1605.34 264.731C1603.94 265.531 1603.04 266.431 1602.64 267.431C1602.24 268.431 1602.04 270.131 1602.04 272.531H1587.04V268.931ZM1848.58 539.231V372.131H1847.38L1788.28 539.231H1767.88L1709.08 372.131H1707.88V539.231H1685.08V332.831H1719.28L1777.78 499.631H1779.58L1838.38 332.831H1871.98V539.231H1848.58ZM2090.63 539.231L1999.43 380.831H1998.23V539.231H1975.13V332.831H1999.73L2089.43 488.231H2090.63V332.831H2114.03V539.231H2090.63ZM2226.76 541.631C2203.16 541.631 2186.36 539.031 2176.36 533.831C2166.36 528.431 2159.96 518.931 2157.16 505.331C2154.56 491.731 2153.26 468.631 2153.26 436.031C2153.26 403.431 2154.56 380.331 2157.16 366.731C2159.96 353.131 2166.36 343.731 2176.36 338.531C2186.36 333.131 2203.16 330.431 2226.76 330.431C2250.36 330.431 2267.06 333.131 2276.86 338.531C2286.86 343.731 2293.16 353.131 2295.76 366.731C2298.56 380.331 2299.96 403.431 2299.96 436.031C2299.96 468.631 2298.56 491.731 2295.76 505.331C2293.16 518.931 2286.86 528.431 2276.86 533.831C2267.06 539.031 2250.36 541.631 2226.76 541.631ZM2226.76 520.331C2243.56 520.331 2254.96 518.931 2260.96 516.131C2266.96 513.331 2270.96 506.531 2272.96 495.731C2274.96 484.931 2275.96 465.031 2275.96 436.031C2275.96 407.031 2274.96 387.131 2272.96 376.331C2270.96 365.531 2266.96 358.731 2260.96 355.931C2254.96 353.131 2243.56 351.731 2226.76 351.731C2209.96 351.731 2198.46 353.131 2192.26 355.931C2186.26 358.731 2182.26 365.531 2180.26 376.331C2178.26 387.131 2177.26 407.031 2177.26 436.031C2177.26 465.031 2178.26 484.931 2180.26 495.731C2182.26 506.531 2186.26 513.331 2192.26 516.131C2198.46 518.931 2209.96 520.331 2226.76 520.331ZM2187.16 317.231V315.431L2214.16 275.531H2239.06L2266.06 315.431V317.231H2250.16L2226.46 288.431L2203.06 317.231H2187.16ZM2237.26 268.931C2237.26 263.931 2238.16 260.431 2239.96 258.431C2241.76 256.431 2245.16 254.631 2250.16 253.031L2255.86 251.231C2261.46 249.631 2265.06 248.131 2266.66 246.731C2268.46 245.131 2269.36 242.631 2269.36 239.231C2269.36 234.831 2267.96 232.131 2265.16 231.131C2262.36 229.931 2256.56 229.331 2247.76 229.331C2239.16 229.331 2229.56 229.831 2218.96 230.831V217.031C2230.96 215.431 2241.36 214.631 2250.16 214.631C2263.16 214.631 2272.36 216.231 2277.76 219.431C2283.16 222.631 2285.86 228.731 2285.86 237.731C2285.86 244.131 2284.76 248.831 2282.56 251.831C2280.56 254.831 2276.36 257.431 2269.96 259.631L2263.66 261.731C2259.86 262.931 2257.16 263.931 2255.56 264.731C2254.16 265.531 2253.26 266.431 2252.86 267.431C2252.46 268.431 2252.26 270.131 2252.26 272.531H2237.26V268.931ZM2339.89 539.231V332.831H2363.89V539.231H2339.89ZM2467.34 332.831H2547.44C2565.64 332.831 2578.64 337.231 2586.44 346.031C2594.44 354.831 2598.44 367.631 2598.44 384.431C2598.44 398.431 2595.84 409.431 2590.64 417.431C2585.64 425.431 2577.44 430.631 2566.04 433.031V434.231C2579.24 436.831 2588.24 442.431 2593.04 451.031C2598.04 459.431 2600.54 470.731 2600.54 484.931C2600.54 501.731 2596.64 515.031 2588.84 524.831C2581.04 534.431 2566.84 539.231 2546.24 539.231H2467.34V332.831ZM2540.54 424.031C2551.94 424.031 2560.44 421.231 2566.04 415.631C2571.64 410.031 2574.44 401.231 2574.44 389.231C2574.44 380.431 2573.44 373.531 2571.44 368.531C2569.64 363.531 2566.24 359.931 2561.24 357.731C2556.44 355.331 2549.54 354.131 2540.54 354.131H2491.34V424.031H2540.54ZM2541.74 518.231C2554.94 518.231 2563.94 515.531 2568.74 510.131C2573.74 504.731 2576.24 495.331 2576.24 481.931C2576.24 468.531 2573.64 459.131 2568.44 453.731C2563.44 448.131 2554.54 445.331 2541.74 445.331H2491.34V518.231H2541.74ZM2758.58 539.231L2740.28 482.831H2662.28L2644.28 539.231H2619.98L2685.98 332.831H2717.48L2783.48 539.231H2758.58ZM2702.18 359.231H2700.68L2668.28 461.531H2733.98L2702.18 359.231ZM2688.68 586.031V557.831H2715.08V586.031H2688.68ZM2662.28 314.531V312.731L2689.28 272.831H2714.18L2741.18 312.731V314.531H2725.28L2701.58 285.731L2678.18 314.531H2662.28ZM2847.62 539.231V354.731H2791.82V332.831H2927.42V354.731H2871.62V539.231H2847.62Z" fill="black"/>
<path d="M339.475 175.725L327.216 251.106L222.508 10.377L83.6539 336.884L61.6796 252.296C31.1546 311.102 8.53662 370.426 8.53662 417.127C8.53662 560.777 104.334 660.625 222.508 660.625C340.681 660.625 436.479 560.777 436.479 417.127C436.479 349.775 389.441 256.166 339.475 175.725Z" fill="#FF7452"/>
<path d="M51.7856 417.127C51.7856 386.282 61.6569 349.929 77.1517 311.856L61.6785 252.296C31.1546 311.101 8.53662 370.426 8.53662 417.127C8.53662 560.776 104.334 660.624 222.508 660.624C229.808 660.624 237.021 660.24 244.133 659.491C136.115 648.118 51.7856 551.903 51.7856 417.127Z" fill="#E24642"/>
<path d="M81.3779 464.166C81.3779 369.42 222.508 176.397 222.508 176.397C222.508 176.397 363.638 369.42 363.638 464.166C363.638 558.912 300.451 635.72 222.508 635.72C144.565 635.72 81.3779 558.913 81.3779 464.166Z" fill="#FFD652"/>
<path d="M256.652 594.215C178.709 594.215 115.522 517.406 115.522 422.66C115.522 356.758 183.79 243.33 225.365 180.361C223.53 177.795 222.508 176.396 222.508 176.396C222.508 176.396 81.3779 369.419 81.3779 464.165C81.3779 558.911 144.565 635.72 222.508 635.72C270.199 635.72 312.36 606.961 337.908 562.937C314.932 582.638 286.905 594.215 256.652 594.215Z" fill="#FB9D46"/>
<path d="M17.0732 417.127C17.0732 381.583 31.2268 334.56 59.1837 277.14L75.5162 340.008C76.5577 344.015 79.4826 346.864 82.9261 347.222C86.3643 347.586 89.6515 345.38 91.2396 341.649L222.593 32.7715L264.307 128.675C266.511 133.741 271.673 135.677 275.843 132.998C280.011 130.319 281.603 124.042 279.399 118.975L230.055 5.52658C228.575 2.12702 225.671 0 222.508 0C222.495 0 222.482 0 222.468 0C219.291 0.0183477 216.383 2.18075 214.924 5.61176L85.5676 309.79L69.8205 249.173C68.82 245.32 66.0707 242.523 62.7749 242.007C59.4791 241.487 56.235 243.344 54.4615 246.76C18.3227 316.374 0 373.695 0 417.126C0 453.981 6.03103 488.93 17.926 521.005C19.3502 524.847 22.4584 527.12 25.7133 527.12C26.8852 527.12 28.0787 526.824 29.2161 526.2C33.5135 523.845 35.4283 517.7 33.4898 512.478C22.5964 483.102 17.0732 451.021 17.0732 417.127Z" fill="black"/>
<path d="M346.286 169.472C344.258 166.209 340.843 164.694 337.562 165.613C334.283 166.529 331.752 169.701 331.1 173.713L323.51 220.388L296.249 157.714C294.045 152.647 288.878 150.713 284.713 153.39C280.545 156.069 278.953 162.347 281.157 167.413L319.669 255.956C321.359 259.841 324.879 262.012 328.455 261.373C332.031 260.736 334.889 257.428 335.59 253.119L344.107 200.74C399.021 292.471 427.944 367.015 427.944 417.126C427.944 550.027 339.627 650.246 222.51 650.246C156.912 650.246 97.4366 618.327 59.3314 562.67C56.3137 558.264 50.9328 557.668 47.3092 561.332C43.6856 564.996 43.1929 571.54 46.2084 575.946C87.5664 636.354 151.825 671 222.508 671C282.716 671 338.491 645.931 379.559 600.411C421.77 553.626 445.016 488.535 445.016 417.127C445.016 358.26 411.798 274.937 346.286 169.472Z" fill="black"/>
<path d="M222.508 166.02C220.069 166.02 217.747 167.287 216.127 169.503C210.277 177.504 72.8413 366.595 72.8413 464.166C72.8413 564.483 139.982 646.097 222.508 646.097C305.034 646.097 372.174 564.483 372.174 464.166C372.174 366.595 234.739 177.504 228.888 169.503C227.269 167.287 224.946 166.02 222.508 166.02ZM355.102 464.166C355.102 553.039 295.621 625.344 222.508 625.344C149.395 625.344 89.9134 553.04 89.9134 464.166C89.9134 427.625 113.736 367.718 158.805 290.924C184.655 246.877 210.786 208.858 222.508 192.228C234.229 208.858 260.359 246.877 286.211 290.924C331.279 367.718 355.102 427.625 355.102 464.166Z" fill="black"/>
<path d="M176.982 409.517C172.267 409.517 168.445 414.163 168.445 419.894V464.858H139.991V419.894C139.991 414.163 136.169 409.517 131.455 409.517C126.74 409.517 122.918 414.163 122.918 419.894V530.575C122.918 536.306 126.74 540.952 131.455 540.952C136.169 540.952 139.991 536.306 139.991 530.575V485.61H168.445V530.574C168.445 536.305 172.267 540.95 176.982 540.95C181.697 540.95 185.518 536.305 185.518 530.574V419.893C185.518 414.163 181.697 409.517 176.982 409.517Z" fill="black"/>
<path d="M195.762 419.894V530.575C195.762 536.306 199.584 540.952 204.298 540.952H242.995C247.71 540.952 251.532 536.306 251.532 530.575V419.894C251.532 414.163 247.71 409.517 242.995 409.517H204.298C199.584 409.517 195.762 414.163 195.762 419.894ZM212.834 430.27H234.459V520.198H212.834V430.27Z" fill="black"/>
<path d="M268.034 430.269H282.261V530.573C282.261 536.304 286.083 540.95 290.797 540.95C295.512 540.95 299.334 536.304 299.334 530.573V430.269H313.561C318.275 430.269 322.097 425.624 322.097 419.893C322.097 414.162 318.275 409.516 313.561 409.516H268.035C263.32 409.516 259.498 414.162 259.498 419.893C259.497 425.624 263.319 430.269 268.034 430.269Z" fill="black"/>
<path d="M3349.47 175.725L3337.22 251.106L3232.51 10.377L3093.65 336.884L3071.68 252.296C3041.15 311.102 3018.54 370.426 3018.54 417.127C3018.54 560.777 3114.33 660.625 3232.51 660.625C3350.68 660.625 3446.48 560.777 3446.48 417.127C3446.48 349.775 3399.44 256.166 3349.47 175.725Z" fill="#FF7452"/>
<path d="M3061.79 417.127C3061.79 386.282 3071.66 349.929 3087.15 311.856L3071.68 252.296C3041.15 311.101 3018.54 370.426 3018.54 417.127C3018.54 560.776 3114.33 660.624 3232.51 660.624C3239.81 660.624 3247.02 660.24 3254.13 659.491C3146.12 648.118 3061.79 551.903 3061.79 417.127Z" fill="#E24642"/>
<path d="M3091.38 464.166C3091.38 369.42 3232.51 176.397 3232.51 176.397C3232.51 176.397 3373.64 369.42 3373.64 464.166C3373.64 558.912 3310.45 635.72 3232.51 635.72C3154.56 635.72 3091.38 558.913 3091.38 464.166Z" fill="#FFD652"/>
<path d="M3266.65 594.215C3188.71 594.215 3125.52 517.406 3125.52 422.66C3125.52 356.758 3193.79 243.33 3235.36 180.361C3233.53 177.795 3232.51 176.396 3232.51 176.396C3232.51 176.396 3091.38 369.419 3091.38 464.165C3091.38 558.911 3154.56 635.72 3232.51 635.72C3280.2 635.72 3322.36 606.961 3347.91 562.937C3324.93 582.638 3296.91 594.215 3266.65 594.215Z" fill="#FB9D46"/>
<path d="M3027.07 417.127C3027.07 381.583 3041.23 334.56 3069.18 277.14L3085.52 340.008C3086.56 344.015 3089.48 346.864 3092.93 347.222C3096.36 347.586 3099.65 345.38 3101.24 341.649L3232.59 32.7715L3274.31 128.675C3276.51 133.741 3281.67 135.677 3285.84 132.998C3290.01 130.319 3291.6 124.042 3289.4 118.975L3240.05 5.52658C3238.58 2.12702 3235.67 0 3232.51 0C3232.49 0 3232.48 0 3232.47 0C3229.29 0.0183477 3226.38 2.18075 3224.92 5.61176L3095.57 309.79L3079.82 249.173C3078.82 245.32 3076.07 242.523 3072.77 242.007C3069.48 241.487 3066.23 243.344 3064.46 246.76C3028.32 316.374 3010 373.695 3010 417.126C3010 453.981 3016.03 488.93 3027.93 521.005C3029.35 524.847 3032.46 527.12 3035.71 527.12C3036.89 527.12 3038.08 526.824 3039.22 526.2C3043.51 523.845 3045.43 517.7 3043.49 512.478C3032.6 483.102 3027.07 451.021 3027.07 417.127Z" fill="black"/>
<path d="M3356.29 169.472C3354.26 166.209 3350.84 164.694 3347.56 165.613C3344.28 166.529 3341.75 169.701 3341.1 173.713L3333.51 220.388L3306.25 157.714C3304.04 152.647 3298.88 150.713 3294.71 153.39C3290.55 156.069 3288.95 162.347 3291.16 167.413L3329.67 255.956C3331.36 259.841 3334.88 262.012 3338.46 261.373C3342.03 260.736 3344.89 257.428 3345.59 253.119L3354.11 200.74C3409.02 292.471 3437.94 367.015 3437.94 417.126C3437.94 550.027 3349.63 650.246 3232.51 650.246C3166.91 650.246 3107.44 618.327 3069.33 562.67C3066.31 558.264 3060.93 557.668 3057.31 561.332C3053.69 564.996 3053.19 571.54 3056.21 575.946C3097.57 636.354 3161.82 671 3232.51 671C3292.72 671 3348.49 645.931 3389.56 600.411C3431.77 553.626 3455.02 488.535 3455.02 417.127C3455.02 358.26 3421.8 274.937 3356.29 169.472Z" fill="black"/>
<path d="M3232.51 166.02C3230.07 166.02 3227.75 167.287 3226.13 169.503C3220.28 177.504 3082.84 366.595 3082.84 464.166C3082.84 564.483 3149.98 646.097 3232.51 646.097C3315.03 646.097 3382.17 564.483 3382.17 464.166C3382.17 366.595 3244.74 177.504 3238.89 169.503C3237.27 167.287 3234.95 166.02 3232.51 166.02ZM3365.1 464.166C3365.1 553.039 3305.62 625.344 3232.51 625.344C3159.39 625.344 3099.91 553.04 3099.91 464.166C3099.91 427.625 3123.74 367.718 3168.8 290.924C3194.65 246.877 3220.79 208.858 3232.51 192.228C3244.23 208.858 3270.36 246.877 3296.21 290.924C3341.28 367.718 3365.1 427.625 3365.1 464.166Z" fill="black"/>
<path d="M3186.98 409.517C3182.27 409.517 3178.45 414.163 3178.45 419.894V464.858H3149.99V419.894C3149.99 414.163 3146.17 409.517 3141.45 409.517C3136.74 409.517 3132.92 414.163 3132.92 419.894V530.575C3132.92 536.306 3136.74 540.952 3141.45 540.952C3146.17 540.952 3149.99 536.306 3149.99 530.575V485.61H3178.45V530.574C3178.45 536.305 3182.27 540.95 3186.98 540.95C3191.7 540.95 3195.52 536.305 3195.52 530.574V419.893C3195.52 414.163 3191.7 409.517 3186.98 409.517Z" fill="black"/>
<path d="M3205.76 419.894V530.575C3205.76 536.306 3209.58 540.952 3214.3 540.952H3253C3257.71 540.952 3261.53 536.306 3261.53 530.575V419.894C3261.53 414.163 3257.71 409.517 3253 409.517H3214.3C3209.58 409.517 3205.76 414.163 3205.76 419.894ZM3222.83 430.27H3244.46V520.198H3222.83V430.27Z" fill="black"/>
<path d="M3278.03 430.269H3292.26V530.573C3292.26 536.304 3296.08 540.95 3300.8 540.95C3305.51 540.95 3309.33 536.304 3309.33 530.573V430.269H3323.56C3328.28 430.269 3332.1 425.624 3332.1 419.893C3332.1 414.162 3328.28 409.516 3323.56 409.516H3278.03C3273.32 409.516 3269.5 414.162 3269.5 419.893C3269.5 425.624 3273.32 430.269 3278.03 430.269Z" fill="black"/>
</svg>
